# xmcd
#
# Track frame offsets:
#	150
#	12913
#	30165
#	45252
#	60675
#	74640
#	88346
#	104788
#	124127
#	140142
#	154942
#	173568
#	187330
#	203575
#	216715
#	232856
#
# Disc length: 3299 seconds
#
# Revision: 0
# Processed by: cddbd v1.5.2PL0 Copyright (c) Steve Scherf et al.
# Submitted via: audiograbber 1.83.01
#
DISCID=ed0ce110
DTITLE=Various Artist - Italo Pop Hits 3
DYEAR=1983
DGENRE=Pop
TTITLE0=Ricchi E Poveri - Mamma Maria
TTITLE1=Toto Cutugno - L'Italiano
TTITLE2=Tiziana Rivale - Sara Quel Che Sara
TTITLE3=Al Bano Carrisi - Angeli
TTITLE4=Mal - Sei La Mia Donna
TTITLE5=Andy L. - Una Donna Per Amare
TTITLE6=Lino Moreno - Dolce Amore Tu
TTITLE7=Loretta Goggi - Oceano
TTITLE8=Al Bano and Romina Power - Che Angelo Sei
TTITLE9=Pupo - Cieli Azzurri
TTITLE10=Cristiano Malgioglio - Clown
TTITLE11=Paolo Barabani - Hop Hop Somarello
TTITLE12=Al Bano and Romina Power - Tu Soltanto Tu (Mi Hai Fatto Innamorare)
TTITLE13=Nando Morandi - Vivo In Un Mondo
TTITLE14=Dario Farina - Sei Di Più
TTITLE15=Ricchi E Poveri - Piccolo Amore
EXTD=
EXTT0=
EXTT1=
EXTT2=
EXTT3=
EXTT4=
EXTT5=
EXTT6=
EXTT7=
EXTT8=
EXTT9=
EXTT10=
EXTT11=
EXTT12=
EXTT13=
EXTT14=
EXTT15=
PLAYORDER=
